<svg xmlns="http://www.w3.org/2000/svg" width="220" height="52" viewBox="0 0 220 52" role="img" aria-label="Splashes logo">
  <defs>
    <linearGradient id="g" x1="0" y1="0" x2="1" y2="1">
      <stop offset="0" stop-color="#ffb44d"/>
      <stop offset="1" stop-color="#ff6a00"/>
    </linearGradient>
  </defs>
  <rect x="0" y="0" width="220" height="52" rx="10" fill="none"/>
  <g transform="translate(0,6)">
    <path d="M28 10c10 0 18 8 18 18 0 5-2 10-6 13-3 3-7 5-12 5-10 0-18-8-18-18 0-10 8-18 18-18Z" fill="url(#g)"/>
    <path d="M19 24c3-4 7-6 12-6 6 0 10 3 13 8-4 6-9 10-15 10-5 0-8-2-10-4 1-3 0-5 0-8Z" fill="#0b3a4a" opacity="0.25"/>
    <circle cx="23" cy="22" r="3" fill="#fff"/>
    <circle cx="24" cy="22" r="1.4" fill="#0b3a4a"/>
    <path d="M44 30c4 1 7 0 10-2 2-2 3-4 3-7" fill="none" stroke="#fff" stroke-width="3" stroke-linecap="round"/>
  </g>
  <text x="62" y="36" font-family="Georgia, 'Times New Roman', serif" font-size="30" fill="#ffffff" font-weight="700">Splashes</text>
</svg>
